<svg xmlns="http://www.w3.org/2000/svg" width="20" height="20" viewBox="0 0 192 192" version="1.1"><path d="M 37.738 56.921 L 32.977 65.823 36.238 67.762 C 38.032 68.828, 50.413 75.479, 63.750 82.542 C 77.088 89.604, 88 95.660, 88 96 C 88 96.340, 77.088 102.396, 63.750 109.458 C 50.413 116.521, 38.025 123.176, 36.223 124.248 L 32.945 126.197 37.620 134.848 C 40.191 139.607, 42.382 143.617, 42.490 143.759 C 42.597 143.902, 54.324 139.289, 68.549 133.509 C 82.774 127.729, 95.107 123.001, 95.956 123.001 C 96.805 123.002, 109.159 127.731, 123.409 133.509 C 137.658 139.288, 149.405 143.900, 149.511 143.758 C 149.618 143.616, 151.809 139.607, 154.380 134.848 L 159.055 126.197 155.777 124.248 C 153.975 123.176, 141.588 116.521, 128.250 109.458 C 114.912 102.396, 104 96.340, 104 96 C 104 95.660, 114.912 89.604, 128.250 82.542 C 141.588 75.479, 153.975 68.824, 155.777 67.752 L 159.055 65.803 154.380 57.152 C 151.809 52.393, 149.618 48.383, 149.510 48.241 C 149.403 48.098, 137.676 52.711, 123.451 58.491 C 109.226 64.271, 96.893 68.999, 96.044 68.999 C 95.195 68.998, 82.850 64.273, 68.611 58.499 C 54.373 52.724, 42.673 48.004, 42.611 48.010 C 42.550 48.015, 40.357 52.025, 37.738 56.921" stroke="none" fill="#24f0d8" fill-rule="evenodd"/><path d="M 23.797 1.792 C 13.487 5.537, 4.685 14.531, 1.533 24.540 C 0.136 28.976, -0.021 37.786, 0.223 98.040 L 0.500 166.500 2.961 171.500 C 6.112 177.901, 14.099 185.888, 20.500 189.039 L 25.500 191.500 93.960 191.777 C 170.029 192.085, 167.859 192.250, 177.244 185.434 C 182.858 181.357, 188.322 174.167, 190.084 168.538 C 190.779 166.317, 191.720 164.072, 192.174 163.550 C 193.237 162.327, 193.263 26.720, 192.199 27.377 C 191.759 27.649, 190.838 25.988, 190.152 23.686 C 187.467 14.671, 178.194 5.421, 168.203 1.792 C 163.942 0.244, 157.158 0.083, 96 0.083 C 34.842 0.083, 28.058 0.244, 23.797 1.792 M 0.473 96 C 0.473 133.675, 0.597 149.087, 0.750 130.250 C 0.902 111.412, 0.902 80.587, 0.750 61.750 C 0.597 42.912, 0.473 58.325, 0.473 96 M 37.738 56.921 L 32.977 65.823 36.238 67.762 C 38.032 68.828, 50.413 75.479, 63.750 82.542 C 77.088 89.604, 88 95.660, 88 96 C 88 96.340, 77.088 102.396, 63.750 109.458 C 50.413 116.521, 38.025 123.176, 36.223 124.248 L 32.945 126.197 37.620 134.848 C 40.191 139.607, 42.382 143.617, 42.490 143.759 C 42.597 143.902, 54.324 139.289, 68.549 133.509 C 82.774 127.729, 95.107 123.001, 95.956 123.001 C 96.805 123.002, 109.159 127.731, 123.409 133.509 C 137.658 139.288, 149.405 143.900, 149.511 143.758 C 149.618 143.616, 151.809 139.607, 154.380 134.848 L 159.055 126.197 155.777 124.248 C 153.975 123.176, 141.588 116.521, 128.250 109.458 C 114.912 102.396, 104 96.340, 104 96 C 104 95.660, 114.912 89.604, 128.250 82.542 C 141.588 75.479, 153.975 68.824, 155.777 67.752 L 159.055 65.803 154.380 57.152 C 151.809 52.393, 149.618 48.383, 149.510 48.241 C 149.403 48.098, 137.676 52.711, 123.451 58.491 C 109.226 64.271, 96.893 68.999, 96.044 68.999 C 95.195 68.998, 82.850 64.273, 68.611 58.499 C 54.373 52.724, 42.673 48.004, 42.611 48.010 C 42.550 48.015, 40.357 52.025, 37.738 56.921" stroke="none" fill="#1c1c1c" fill-rule="evenodd"/></svg>